<svg preserveAspectRatio="none" overflow="visible" style="display: block;" width="12" height="12.0002" viewBox="0 0 12 12.0002" fill="none" xmlns="http://www.w3.org/2000/svg">
<g id="Group">
<path id="Vector" d="M8.7535 7.15393L8.749 7.19143C7.6495 6.64343 7.5345 6.57043 7.3925 6.78343C7.294 6.93093 7.007 7.26543 6.9205 7.36443C6.833 7.46193 6.746 7.46943 6.5975 7.40193C6.4475 7.32693 5.966 7.16943 5.396 6.65943C4.952 6.26193 4.654 5.77443 4.566 5.62443C4.4195 5.37143 4.726 5.33543 5.005 4.80743C5.055 4.70243 5.0295 4.61993 4.9925 4.54543C4.9555 4.47093 4.6565 3.73543 4.5315 3.44243C4.4115 3.15043 4.288 3.18743 4.1955 3.18743C3.9075 3.16243 3.697 3.16643 3.5115 3.35943C2.7045 4.24643 2.908 5.16143 3.5985 6.13443C4.9555 7.91043 5.6785 8.23743 7.0005 8.69143C7.3575 8.80493 7.683 8.78893 7.9405 8.75193C8.2275 8.70643 8.824 8.39143 8.9485 8.03893C9.076 7.68643 9.076 7.39393 9.0385 7.32643C9.0015 7.25893 8.9035 7.22143 8.7535 7.15393Z" fill="#F97216"/>
<path id="Vector_2" d="M10.26 1.72472C6.4155 -1.99178 0.053 0.703716 0.0505 5.94672C0.0505 6.99472 0.325 8.01672 0.848 8.91922L0 12.0002L3.1675 11.1742C7.12 13.3092 11.998 10.4742 12 5.94972C12 4.36172 11.38 2.86722 10.2525 1.74422L10.26 1.72472ZM11.001 5.93322C10.998 9.74972 6.8085 12.1332 3.495 10.1852L3.315 10.0782L1.44 10.5657L1.9425 8.74322L1.823 8.55572C-0.239 5.27322 2.13 0.983216 6.036 0.983216C6.68826 0.981714 7.33435 1.10953 7.93691 1.35927C8.53947 1.60902 9.08655 1.97573 9.5465 2.43822C10.0088 2.89504 10.3756 3.43936 10.6253 4.03942C10.875 4.63948 11.0027 5.28327 11.001 5.93322Z" fill="#F97216"/>
</g>
</svg>
